<svg width="17" height="17" viewBox="0 0 17 17" fill="none" xmlns="http://www.w3.org/2000/svg">
<path d="M1 13.6083C1 12.6529 1.39467 11.7366 2.09719 11.061C2.79971 10.3854 3.75253 10.0059 4.74604 10.0059H12.2381C13.2316 10.0059 14.1844 10.3854 14.887 11.061C15.5895 11.7366 15.9841 12.6529 15.9841 13.6083C15.9841 14.086 15.7868 14.5441 15.4355 14.8819C15.0843 15.2197 14.6079 15.4095 14.1111 15.4095H2.87302C2.37626 15.4095 1.89985 15.2197 1.54859 14.8819C1.19734 14.5441 1 14.086 1 13.6083Z" stroke="black" stroke-width="2" stroke-linejoin="round"/>
<path d="M8.49214 6.40362C10.0438 6.40362 11.3017 5.19398 11.3017 3.70181C11.3017 2.20964 10.0438 1 8.49214 1C6.94049 1 5.68262 2.20964 5.68262 3.70181C5.68262 5.19398 6.94049 6.40362 8.49214 6.40362Z" stroke="black" stroke-width="2"/>
</svg>
