<svg width="36" height="36" viewBox="0 0 36 36" fill="none" xmlns="http://www.w3.org/2000/svg">
<path d="M25.5748 30.42C24.1048 31.845 22.4998 31.62 20.9548 30.945C19.3198 30.255 17.8198 30.225 16.0948 30.945C13.9348 31.875 12.7948 31.605 11.5048 30.42C4.18476 22.875 5.26476 11.385 13.5748 10.965C15.5998 11.07 17.0098 12.075 18.1948 12.165C19.9648 11.805 21.6598 10.77 23.5498 10.905C25.8148 11.085 27.5248 11.985 28.6498 13.605C23.9698 16.41 25.0798 22.575 29.3698 24.3C28.5148 26.55 27.4048 28.785 25.5598 30.435L25.5748 30.42ZM18.0448 10.875C17.8198 7.53 20.5348 4.77 23.6548 4.5C24.0898 8.37 20.1448 11.25 18.0448 10.875Z" fill="black"/>
</svg>
