<svg width="17" height="15" viewBox="0 0 17 15" fill="none" xmlns="http://www.w3.org/2000/svg">
<path d="M14.0006 8.07643V7.005H17V8.07643H14.0006ZM15.0081 15L12.6077 12.9225L13.1862 12.0739L15.5867 14.1504L15.0081 15ZM13.1147 2.925L12.5362 2.07643L14.9366 0L15.5152 0.848572L13.1147 2.925ZM2.46452 13.9286V9.84857H1.50063C1.08461 9.84857 0.730504 9.68 0.438302 9.34286C0.146101 9.00571 0 8.59714 0 8.11714V6.96429C0 6.48429 0.146101 6.07571 0.438302 5.73857C0.730504 5.40143 1.08461 5.23286 1.50063 5.23286H4.96433L8.64347 2.71929V12.3621L4.96433 9.84857H3.39313V13.9286H2.46452ZM7.71486 10.4539V4.6275L5.2262 6.30429H1.4997C1.35669 6.30429 1.22545 6.37286 1.10597 6.51C0.98649 6.64714 0.927059 6.79857 0.927678 6.96429V8.11714C0.927678 8.28214 0.987109 8.43357 1.10597 8.57143C1.22483 8.70929 1.35608 8.77786 1.4997 8.77714H5.22434L7.71486 10.4539ZM10.2871 10.6361V4.44536C10.5973 4.7775 10.8474 5.21393 11.0374 5.75464C11.2269 6.29464 11.3216 6.88964 11.3216 7.53964C11.3216 8.18964 11.2269 8.78464 11.0374 9.32464C10.848 9.86464 10.5976 10.3011 10.2862 10.6339" fill="black"/>
</svg>
