<svg width="15" height="15" viewBox="0 0 15 15" fill="none" xmlns="http://www.w3.org/2000/svg">
<path fill-rule="evenodd" clip-rule="evenodd" d="M14.7885 2.661L13.9523 2.46368L11.6925 4.71135L10.4125 3.40736L12.6166 1.09427L12.4236 0.24496C11.9579 0.0890925 11.4707 0.00660781 10.9796 0.000461476C10.4439 -0.0077794 9.9122 0.0944308 9.41769 0.300723C8.94021 0.516923 8.50862 0.822706 8.14627 1.20151C7.74293 1.58371 7.42348 2.04568 7.20826 2.55805C6.79387 3.57774 6.79387 4.71899 7.20826 5.73868C4.97335 7.93809 2.76731 10.1667 0.590683 12.4238C0.365559 12.7187 0.258357 13.0865 0.286229 13.4565C0.308197 13.8544 0.48709 14.2273 0.783646 14.4935C0.916576 14.6382 1.07524 14.7583 1.25212 14.8452C1.43436 14.9256 1.63054 14.9717 1.82886 14.9814C2.16762 14.9749 2.49244 14.8463 2.74437 14.62C4.40385 13.0576 7.58346 9.84798 9.38982 7.96705C9.87973 8.17509 10.4061 8.28233 10.9378 8.28125C11.473 8.28083 12.0028 8.1731 12.4957 7.96441C12.9886 7.75573 13.4347 7.45033 13.8076 7.06627C14.5736 6.28479 15.0014 5.23317 14.9986 4.13871C15.011 3.63789 14.94 3.1385 14.7885 2.661ZM2.0958 13.8597C2.05454 13.8963 2.0048 13.9221 1.95107 13.9348C1.89822 13.9439 1.84419 13.9439 1.79134 13.9348C1.73593 13.9263 1.68315 13.9054 1.63697 13.8736C1.58742 13.8446 1.54552 13.8042 1.51476 13.7557C1.36468 13.6023 1.22425 13.3106 1.36468 13.1466C2.83335 11.5841 5.85751 8.53004 7.74855 6.66306C7.85576 6.80461 7.97368 6.93973 8.10018 7.06627C8.22667 7.19817 8.36282 7.32042 8.50754 7.43194C6.67868 9.30858 3.69525 12.3262 2.0958 13.8597ZM14.0145 4.13871C14.0166 4.95907 13.6972 5.74726 13.1226 6.33491C12.5492 6.89758 11.778 7.21277 10.9748 7.21277C10.1716 7.21277 9.4004 6.89758 8.82701 6.33491C8.40676 5.8962 8.11968 5.34715 7.99917 4.75162C7.87866 4.15609 7.92967 3.53857 8.14627 2.97091C8.29045 2.58457 8.51409 2.23281 8.80271 1.93836C9.09134 1.64392 9.43853 1.41335 9.82184 1.26156C10.1858 1.10919 10.5765 1.03116 10.971 1.03208H11.2433L9.29548 3.04061V3.78698L11.327 5.80946H12.0345L14.0145 3.86204V4.13871ZM2.42491 6.09578H4.06617L4.82194 6.86466L5.54877 6.14189L4.83588 5.41483V5.36871L4.89698 3.60039L4.66114 3.13176L1.59516 1.11358L0.961601 1.18435L0.0707533 2.09479L0 2.73713L1.97037 5.86629L2.42491 6.09578ZM1.41185 2.20095L3.8925 3.83523L3.85069 5.0395H2.6972L1.09775 2.50658L1.41185 2.20095ZM9.02854 9.6646L9.75109 8.9429L13.0808 12.3584C13.3612 12.6532 13.5177 13.0447 13.5177 13.4517C13.5177 13.8587 13.3612 14.2501 13.0808 14.5449C12.8699 14.7615 12.5987 14.9096 12.3025 14.9698C12.0064 15.03 11.6989 14.9997 11.4202 14.8827C11.2424 14.8038 11.0828 14.6888 10.9517 14.5449L7.58346 11.1101L8.31136 10.3831L11.6689 13.8082C11.7141 13.858 11.7702 13.8966 11.8329 13.9208C11.9563 13.9709 12.0944 13.9709 12.2178 13.9208C12.2805 13.8966 12.3366 13.858 12.3818 13.8082C12.4287 13.7617 12.4653 13.7058 12.489 13.6441C12.5136 13.5812 12.5267 13.5144 12.5276 13.4468C12.5265 13.3794 12.5138 13.3126 12.4901 13.2495C12.4664 13.1879 12.4298 13.1319 12.3829 13.0854L9.02854 9.6646Z" fill="black"/>
</svg>
