<svg width="17" height="16" viewBox="0 0 17 16" fill="none" xmlns="http://www.w3.org/2000/svg">
<path id="Vector" d="M16 4.89156C16 4.54741 15.9533 4.21206 15.8658 3.89432C15.7892 3.61499 15.4308 3.54856 15.2192 3.75265L13.7833 5.13166C13.6465 5.26304 13.4841 5.36726 13.3054 5.43836C13.1267 5.50946 12.9351 5.54606 12.7417 5.54606C12.5482 5.54606 12.3566 5.50946 12.1779 5.43836C11.9992 5.36726 11.8368 5.26304 11.7 5.13166C11.5632 5.00028 11.4547 4.84431 11.3807 4.67266C11.3066 4.501 11.2685 4.31702 11.2685 4.13122C11.2685 3.94542 11.3066 3.76144 11.3807 3.58979C11.4547 3.41813 11.5632 3.26216 11.7 3.13078L13.1358 1.75257C13.3483 1.54848 13.2792 1.20433 12.9883 1.1307C12.2753 0.948554 11.524 0.956934 10.8156 1.15493C10.1072 1.35293 9.46858 1.73303 8.96867 2.25418C8.46876 2.77533 8.12658 3.41774 7.97907 4.11203C7.83155 4.80633 7.88432 5.52614 8.13167 6.19373C8.19083 6.3538 8.1575 6.53308 8.03333 6.65233L1.25 13.1672C0.916667 13.4873 0.916667 14.0068 1.25 14.3261L2.12667 15.1681C2.46 15.4882 2.99917 15.4882 3.3325 15.1681L10.1158 8.65322C10.2408 8.53316 10.4275 8.50115 10.5933 8.55797C11.2045 8.76666 11.8589 8.8313 12.5015 8.74647C13.1441 8.66163 13.7561 8.4298 14.286 8.07047C14.8159 7.71115 15.2481 7.23485 15.5464 6.68165C15.8447 6.12845 16.0002 5.51453 16 4.89156Z" stroke="black" stroke-linecap="round" stroke-linejoin="round"/>
</svg>
