<svg width="23" height="23" viewBox="0 0 23 23" fill="none" xmlns="http://www.w3.org/2000/svg">
<path d="M18.2083 2.875H4.79167C3.7375 2.875 2.875 3.7375 2.875 4.79167V18.2083C2.875 19.2625 3.7375 20.125 4.79167 20.125H18.2083C19.2625 20.125 20.125 19.2625 20.125 18.2083V4.79167C20.125 3.7375 19.2625 2.875 18.2083 2.875ZM16.2917 18.2083H6.70833V17.9783C8.06917 16.8858 9.73667 16.2917 11.5 16.2917C13.2633 16.2917 14.9308 16.8858 16.2917 17.9783V18.2083ZM18.2083 17.1158C16.4833 15.4196 14.1163 14.375 11.5 14.375C8.88375 14.375 6.51667 15.4196 4.79167 17.1158V4.79167H18.2083V17.1158ZM11.5 12.4583C13.3496 12.4583 14.8542 10.9537 14.8542 9.10417C14.8542 7.25458 13.3496 5.75 11.5 5.75C9.65042 5.75 8.14583 7.25458 8.14583 9.10417C8.14583 10.9537 9.65042 12.4583 11.5 12.4583ZM11.5 7.66667C12.2954 7.66667 12.9375 8.30875 12.9375 9.10417C12.9375 9.89958 12.2954 10.5417 11.5 10.5417C10.7046 10.5417 10.0625 9.89958 10.0625 9.10417C10.0625 8.30875 10.7046 7.66667 11.5 7.66667Z" fill="black"/>
</svg>
