<svg width="15" height="15" viewBox="0 0 15 15" fill="none" xmlns="http://www.w3.org/2000/svg">
<path fill-rule="evenodd" clip-rule="evenodd" d="M0 9.80769C0 10.2667 0.182348 10.7069 0.506931 11.0315C0.831513 11.3561 1.27174 11.5385 1.73077 11.5385H3.46154V10.3846H1.73077C1.57776 10.3846 1.43102 10.3238 1.32282 10.2156C1.21463 10.1074 1.15385 9.9607 1.15385 9.80769V1.73077C1.15385 1.57776 1.21463 1.43102 1.32282 1.32282C1.43102 1.21463 1.57776 1.15385 1.73077 1.15385H9.80769C9.9607 1.15385 10.1074 1.21463 10.2156 1.32282C10.3238 1.43102 10.3846 1.57776 10.3846 1.73077V3.46154H5.19231C4.73328 3.46154 4.29305 3.64389 3.96847 3.96847C3.64389 4.29305 3.46154 4.73328 3.46154 5.19231V13.2692C3.46154 13.7283 3.64389 14.1685 3.96847 14.4931C4.29305 14.8177 4.73328 15 5.19231 15H13.2692C13.7283 15 14.1685 14.8177 14.4931 14.4931C14.8177 14.1685 15 13.7283 15 13.2692V5.19231C15 4.73328 14.8177 4.29305 14.4931 3.96847C14.1685 3.64389 13.7283 3.46154 13.2692 3.46154H11.5385V1.73077C11.5385 1.27174 11.3561 0.831513 11.0315 0.506931C10.7069 0.182348 10.2667 0 9.80769 0H1.73077C1.27174 0 0.831513 0.182348 0.506931 0.506931C0.182348 0.831513 0 1.27174 0 1.73077V9.80769ZM4.61538 5.19231C4.61538 5.0393 4.67617 4.89256 4.78436 4.78436C4.89256 4.67617 5.0393 4.61538 5.19231 4.61538H13.2692C13.4222 4.61538 13.569 4.67617 13.6772 4.78436C13.7854 4.89256 13.8462 5.0393 13.8462 5.19231V13.2692C13.8462 13.4222 13.7854 13.569 13.6772 13.6772C13.569 13.7854 13.4222 13.8462 13.2692 13.8462H5.19231C5.0393 13.8462 4.89256 13.7854 4.78436 13.6772C4.67617 13.569 4.61538 13.4222 4.61538 13.2692V5.19231Z" fill="black"/>
</svg>
