<svg width="29" height="29" viewBox="0 0 29 29" fill="none" xmlns="http://www.w3.org/2000/svg">
<path fill-rule="evenodd" clip-rule="evenodd" d="M22.7785 7.79517C22.8818 7.69197 22.9638 7.56942 23.0198 7.43452C23.0758 7.29963 23.1046 7.15503 23.1047 7.00899C23.1048 6.86294 23.0761 6.71831 23.0203 6.58335C22.9645 6.44839 22.8827 6.32574 22.7795 6.22241C22.6763 6.11907 22.5537 6.03708 22.4188 5.98111C22.2839 5.92514 22.1393 5.89628 21.9933 5.89619C21.8472 5.8961 21.7026 5.92478 21.5677 5.98058C21.4327 6.03639 21.31 6.11823 21.2067 6.22144L14.5 12.9282L7.79517 6.22144C7.58648 6.01275 7.30344 5.89551 7.00831 5.89551C6.71317 5.89551 6.43013 6.01275 6.22144 6.22144C6.01275 6.43013 5.89551 6.71317 5.89551 7.00831C5.89551 7.30344 6.01275 7.58648 6.22144 7.79517L12.9282 14.5L6.22144 21.2048C6.11811 21.3081 6.03614 21.4308 5.98021 21.5658C5.92429 21.7008 5.89551 21.8455 5.89551 21.9916C5.89551 22.1378 5.92429 22.2825 5.98021 22.4175C6.03614 22.5525 6.11811 22.6752 6.22144 22.7785C6.43013 22.9872 6.71317 23.1044 7.00831 23.1044C7.15444 23.1044 7.29914 23.0757 7.43415 23.0197C7.56917 22.9638 7.69184 22.8818 7.79517 22.7785L14.5 16.0718L21.2067 22.7785C21.4154 22.9869 21.6983 23.1039 21.9933 23.1038C22.2882 23.1036 22.571 22.9862 22.7795 22.7775C22.9879 22.5688 23.1049 22.2859 23.1047 21.991C23.1045 21.696 22.9872 21.4132 22.7785 21.2048L16.0718 14.5L22.7785 7.79517Z" fill="white"/>
</svg>
