<svg width="30" height="30" viewBox="0 0 30 30" fill="none" xmlns="http://www.w3.org/2000/svg">
<path d="M14.7875 11.25L18.75 15.2V15C18.75 14.0054 18.3549 13.0516 17.6516 12.3483C16.9484 11.6451 15.9946 11.25 15 11.25H14.7875ZM9.4125 12.25L11.35 14.1875C11.2875 14.45 11.25 14.7125 11.25 15C11.25 15.9946 11.6451 16.9484 12.3483 17.6517C13.0516 18.3549 14.0054 18.75 15 18.75C15.275 18.75 15.55 18.7125 15.8125 18.65L17.75 20.5875C16.9125 21 15.9875 21.25 15 21.25C13.3424 21.25 11.7527 20.5915 10.5806 19.4194C9.40848 18.2473 8.75 16.6576 8.75 15C8.75 14.0125 9 13.0875 9.4125 12.25ZM2.5 5.3375L5.35 8.1875L5.9125 8.75C3.85 10.375 2.225 12.5 1.25 15C3.4125 20.4875 8.75 24.375 15 24.375C16.9375 24.375 18.7875 24 20.475 23.325L21.0125 23.85L24.6625 27.5L26.25 25.9125L4.0875 3.75M15 8.75C16.6576 8.75 18.2473 9.40848 19.4194 10.5806C20.5915 11.7527 21.25 13.3424 21.25 15C21.25 15.8 21.0875 16.575 20.8 17.275L24.4625 20.9375C26.3375 19.375 27.8375 17.325 28.75 15C26.5875 9.5125 21.25 5.625 15 5.625C13.25 5.625 11.575 5.9375 10 6.5L12.7125 9.1875C13.425 8.9125 14.1875 8.75 15 8.75Z" fill="#B8B8B8"/>
</svg>
