<svg width="125" height="107" viewBox="0 0 125 107" fill="none" xmlns="http://www.w3.org/2000/svg">
<path id="Vector" d="M0 16.0392C0 12.0269 1.6462 8.17887 4.57646 5.34171C7.50671 2.50455 11.481 0.910645 15.625 0.910645H109.375C113.519 0.910645 117.493 2.50455 120.424 5.34171C123.354 8.17887 125 12.0269 125 16.0392V91.6823C125 95.6946 123.354 99.5426 120.424 102.38C117.493 105.217 113.519 106.811 109.375 106.811H15.625C11.481 106.811 7.50671 105.217 4.57646 102.38C1.6462 99.5426 0 95.6946 0 91.6823V16.0392ZM7.8125 84.118V91.6823C7.8125 93.6884 8.6356 95.6125 10.1007 97.031C11.5659 98.4496 13.553 99.2466 15.625 99.2466H109.375C111.447 99.2466 113.434 98.4496 114.899 97.031C116.364 95.6125 117.188 93.6884 117.188 91.6823V65.2072L87.6797 50.4795C86.9471 50.1242 86.1176 50.0009 85.3086 50.1271C84.4996 50.2534 83.7521 50.6228 83.1719 51.183L54.1875 79.2466L33.4062 65.8426C32.6559 65.3589 31.756 65.1414 30.8589 65.2269C29.9618 65.3124 29.1229 65.6956 28.4844 66.3116L7.8125 84.118ZM46.875 34.95C46.875 31.9407 45.6404 29.0547 43.4427 26.9268C41.245 24.799 38.2643 23.6035 35.1562 23.6035C32.0482 23.6035 29.0675 24.799 26.8698 26.9268C24.6721 29.0547 23.4375 31.9407 23.4375 34.95C23.4375 37.9593 24.6721 40.8453 26.8698 42.9732C29.0675 45.101 32.0482 46.2965 35.1562 46.2965C38.2643 46.2965 41.245 45.101 43.4427 42.9732C45.6404 40.8453 46.875 37.9593 46.875 34.95Z" fill="#D8D8D8"/>
</svg>
