<svg width="23" height="23" viewBox="0 0 23 23" fill="none" xmlns="http://www.w3.org/2000/svg">
<g id="material-symbols-light:delete-outline">
<path id="Vector" d="M7.29779 19.1667C6.86973 19.1667 6.50461 19.0159 6.20241 18.7144C5.90086 18.4128 5.75008 18.0477 5.75008 17.619V5.75002H4.79175V4.79169H8.62508V4.05377H14.3751V4.79169H18.2084V5.75002H17.2501V17.619C17.2501 18.0598 17.1025 18.4278 16.8073 18.723C16.5115 19.0188 16.1432 19.1667 15.7024 19.1667H7.29779ZM16.2917 5.75002H6.70841V17.619C6.70841 17.7908 6.76368 17.932 6.87421 18.0426C6.98473 18.1531 7.12593 18.2084 7.29779 18.2084H15.7024C15.8493 18.2084 15.9844 18.147 16.1077 18.0244C16.2304 17.901 16.2917 17.7659 16.2917 17.619V5.75002ZM9.39941 16.2917H10.3577V7.66669H9.39941V16.2917ZM12.6424 16.2917H13.6007V7.66669H12.6424V16.2917Z" fill="#EC0303"/>
</g>
</svg>
