<svg width="10" height="10" viewBox="0 0 10 10" fill="none" xmlns="http://www.w3.org/2000/svg">
<path d="M5.0002 6.6667C4.90284 6.66689 4.80849 6.63298 4.73353 6.57087L2.23353 4.48753C2.14844 4.41681 2.09493 4.31518 2.08477 4.205C2.07461 4.09482 2.10864 3.98512 2.17936 3.90003C2.25009 3.81494 2.35172 3.76143 2.46189 3.75127C2.57207 3.74112 2.68177 3.77514 2.76686 3.84587L5.0002 5.71253L7.23353 3.91253C7.27615 3.87792 7.32519 3.85208 7.37783 3.83648C7.43047 3.82088 7.48568 3.81584 7.54027 3.82165C7.59487 3.82746 7.64778 3.844 7.69596 3.87032C7.74414 3.89665 7.78664 3.93223 7.82103 3.97503C7.85919 4.01788 7.88809 4.06814 7.90592 4.12267C7.92375 4.1772 7.93012 4.23482 7.92465 4.29193C7.91917 4.34904 7.90196 4.40441 7.87409 4.45455C7.84622 4.5047 7.8083 4.54856 7.7627 4.58337L5.2627 6.59587C5.18558 6.64816 5.09315 6.6731 5.0002 6.6667Z" fill="black"/>
</svg>
