<svg width="15" height="8" viewBox="0 0 15 8" fill="none" xmlns="http://www.w3.org/2000/svg">
<path d="M7.5 7.66675C7.25661 7.66723 7.02074 7.58246 6.83333 7.42717L0.583336 2.21883C0.37061 2.04202 0.236835 1.78795 0.211439 1.5125C0.186044 1.23706 0.271108 0.962809 0.447919 0.750083C0.62473 0.537358 0.878804 0.403583 1.15425 0.378187C1.42969 0.352792 1.70394 0.437856 1.91667 0.614667L7.5 5.28133L13.0833 0.781334C13.1899 0.694807 13.3125 0.630191 13.4441 0.591199C13.5757 0.552208 13.7137 0.53961 13.8502 0.55413C13.9867 0.56865 14.119 0.610001 14.2394 0.675807C14.3599 0.741613 14.4661 0.830577 14.5521 0.937584C14.6475 1.04469 14.7197 1.17034 14.7643 1.30667C14.8089 1.443 14.8248 1.58706 14.8111 1.72983C14.7974 1.87261 14.7544 2.01102 14.6847 2.13639C14.6151 2.26176 14.5203 2.37139 14.4063 2.45842L8.15625 7.48967C7.96346 7.62041 7.7324 7.68276 7.5 7.66675Z" fill="#737373"/>
</svg>
