<svg width="15" height="15" viewBox="0 0 15 15" fill="none" xmlns="http://www.w3.org/2000/svg">
<path d="M8.19938 7.5L11.1056 4.59375C11.1515 4.54783 11.188 4.49331 11.2128 4.43331C11.2377 4.37331 11.2505 4.30901 11.2505 4.24406C11.2505 4.17912 11.2377 4.11481 11.2128 4.05481C11.188 3.99481 11.1515 3.9403 11.1056 3.89437C11.0597 3.84845 11.0052 3.81203 10.9452 3.78717C10.8852 3.76232 10.8209 3.74953 10.7559 3.74953C10.691 3.74953 10.6267 3.76232 10.5667 3.78717C10.5067 3.81203 10.4522 3.84845 10.4063 3.89437L7.5 6.80063L4.59375 3.89437C4.54783 3.84845 4.49331 3.81203 4.43331 3.78717C4.37331 3.76232 4.30901 3.74953 4.24406 3.74953C4.17912 3.74953 4.11481 3.76232 4.05481 3.78717C3.99481 3.81203 3.9403 3.84845 3.89437 3.89437C3.84845 3.9403 3.81203 3.99481 3.78717 4.05481C3.76232 4.11481 3.74953 4.17912 3.74953 4.24406C3.74953 4.30901 3.76232 4.37331 3.78717 4.43331C3.81203 4.49331 3.84845 4.54783 3.89437 4.59375L6.80063 7.5L3.89437 10.4063C3.84845 10.4522 3.81203 10.5067 3.78717 10.5667C3.76232 10.6267 3.74953 10.691 3.74953 10.7559C3.74953 10.8209 3.76232 10.8852 3.78717 10.9452C3.81203 11.0052 3.84845 11.0597 3.89437 11.1056C3.9403 11.1515 3.99481 11.188 4.05481 11.2128C4.11481 11.2377 4.17912 11.2505 4.24406 11.2505C4.30901 11.2505 4.37331 11.2377 4.43331 11.2128C4.49331 11.188 4.54783 11.1515 4.59375 11.1056L7.5 8.19938L10.4063 11.1056C10.4522 11.1515 10.5067 11.188 10.5667 11.2128C10.6267 11.2377 10.691 11.2505 10.7559 11.2505C10.8209 11.2505 10.8852 11.2377 10.9452 11.2128C11.0052 11.188 11.0597 11.1515 11.1056 11.1056C11.1515 11.0597 11.188 11.0052 11.2128 10.9452C11.2377 10.8852 11.2505 10.8209 11.2505 10.7559C11.2505 10.691 11.2377 10.6267 11.2128 10.5667C11.188 10.5067 11.1515 10.4522 11.1056 10.4063L8.19938 7.5ZM7.5 15C5.51088 15 3.60322 14.2098 2.1967 12.8033C0.790176 11.3968 0 9.48912 0 7.5C0 5.51088 0.790176 3.60322 2.1967 2.1967C3.60322 0.790176 5.51088 0 7.5 0C9.48912 0 11.3968 0.790176 12.8033 2.1967C14.2098 3.60322 15 5.51088 15 7.5C15 9.48912 14.2098 11.3968 12.8033 12.8033C11.3968 14.2098 9.48912 15 7.5 15Z" fill="#F50000"/>
</svg>
