<svg width="168" height="16" viewBox="0 0 168 16" fill="none" xmlns="http://www.w3.org/2000/svg">
<rect y="6" width="29" height="2" rx="1" fill="#0428E5"/>
<rect x="10" y="2" width="23" height="2" rx="1" fill="#0428E5"/>
<rect x="6" y="10" width="17" height="2" rx="1" fill="#0428E5"/>
<path d="M41.41 12V1.5H43.255L47.08 7.725L46 7.71L49.87 1.5H51.625V12H49.69V8.055C49.69 7.155 49.71 6.345 49.75 5.625C49.8 4.905 49.88 4.19 49.99 3.48L50.23 4.125L46.975 9.15H45.985L42.835 4.17L43.045 3.48C43.155 4.15 43.23 4.84 43.27 5.55C43.32 6.25 43.345 7.085 43.345 8.055V12H41.41ZM57.8221 12.15C56.9921 12.15 56.2571 11.975 55.6171 11.625C54.9871 11.275 54.4921 10.8 54.1321 10.2C53.7821 9.59 53.6071 8.895 53.6071 8.115C53.6071 7.495 53.7071 6.93 53.9071 6.42C54.1071 5.91 54.3821 5.47 54.7321 5.1C55.0921 4.72 55.5171 4.43 56.0071 4.23C56.5071 4.02 57.0521 3.915 57.6421 3.915C58.1621 3.915 58.6471 4.015 59.0971 4.215C59.5471 4.415 59.9371 4.69 60.2671 5.04C60.5971 5.38 60.8471 5.79 61.0171 6.27C61.1971 6.74 61.2821 7.255 61.2721 7.815L61.2571 8.46H54.8521L54.5071 7.2H59.7121L59.4721 7.455V7.125C59.4421 6.815 59.3421 6.545 59.1721 6.315C59.0021 6.075 58.7821 5.89 58.5121 5.76C58.2521 5.62 57.9621 5.55 57.6421 5.55C57.1521 5.55 56.7371 5.645 56.3971 5.835C56.0671 6.025 55.8171 6.3 55.6471 6.66C55.4771 7.01 55.3921 7.45 55.3921 7.98C55.3921 8.49 55.4971 8.935 55.7071 9.315C55.9271 9.695 56.2321 9.99 56.6221 10.2C57.0221 10.4 57.4871 10.5 58.0171 10.5C58.3871 10.5 58.7271 10.44 59.0371 10.32C59.3471 10.2 59.6821 9.985 60.0421 9.675L60.9571 10.95C60.6871 11.2 60.3771 11.415 60.0271 11.595C59.6871 11.765 59.3271 11.9 58.9471 12C58.5671 12.1 58.1921 12.15 57.8221 12.15ZM65.5462 12.15C64.8462 12.15 64.2162 12.035 63.6562 11.805C63.1062 11.565 62.6562 11.225 62.3062 10.785L63.5062 9.75C63.8062 10.09 64.1412 10.335 64.5112 10.485C64.8812 10.635 65.2712 10.71 65.6812 10.71C65.8512 10.71 66.0012 10.69 66.1312 10.65C66.2712 10.61 66.3912 10.55 66.4912 10.47C66.5912 10.39 66.6662 10.3 66.7162 10.2C66.7762 10.09 66.8062 9.97 66.8062 9.84C66.8062 9.6 66.7162 9.41 66.5362 9.27C66.4362 9.2 66.2762 9.125 66.0562 9.045C65.8462 8.965 65.5712 8.885 65.2312 8.805C64.6912 8.665 64.2412 8.505 63.8812 8.325C63.5212 8.135 63.2412 7.925 63.0412 7.695C62.8712 7.505 62.7412 7.29 62.6512 7.05C62.5712 6.81 62.5312 6.55 62.5312 6.27C62.5312 5.92 62.6062 5.605 62.7562 5.325C62.9162 5.035 63.1312 4.785 63.4012 4.575C63.6712 4.365 63.9862 4.205 64.3462 4.095C64.7062 3.985 65.0812 3.93 65.4712 3.93C65.8712 3.93 66.2562 3.98 66.6262 4.08C67.0062 4.18 67.3562 4.325 67.6762 4.515C68.0062 4.695 68.2862 4.915 68.5162 5.175L67.4962 6.3C67.3062 6.12 67.0962 5.96 66.8662 5.82C66.6462 5.68 66.4212 5.57 66.1912 5.49C65.9612 5.4 65.7462 5.355 65.5462 5.355C65.3562 5.355 65.1862 5.375 65.0362 5.415C64.8862 5.445 64.7612 5.495 64.6612 5.565C64.5612 5.635 64.4812 5.725 64.4212 5.835C64.3712 5.935 64.3462 6.055 64.3462 6.195C64.3562 6.315 64.3862 6.43 64.4362 6.54C64.4962 6.64 64.5762 6.725 64.6762 6.795C64.7862 6.865 64.9512 6.945 65.1712 7.035C65.3912 7.125 65.6762 7.21 66.0262 7.29C66.5162 7.42 66.9262 7.565 67.2562 7.725C67.5862 7.885 67.8462 8.07 68.0362 8.28C68.2262 8.46 68.3612 8.67 68.4412 8.91C68.5212 9.15 68.5612 9.415 68.5612 9.705C68.5612 10.175 68.4262 10.595 68.1562 10.965C67.8962 11.335 67.5362 11.625 67.0762 11.835C66.6262 12.045 66.1162 12.15 65.5462 12.15ZM72.8264 12.15C72.1264 12.15 71.4964 12.035 70.9364 11.805C70.3864 11.565 69.9364 11.225 69.5864 10.785L70.7864 9.75C71.0864 10.09 71.4214 10.335 71.7914 10.485C72.1614 10.635 72.5514 10.71 72.9614 10.71C73.1314 10.71 73.2814 10.69 73.4114 10.65C73.5514 10.61 73.6714 10.55 73.7714 10.47C73.8714 10.39 73.9464 10.3 73.9964 10.2C74.0564 10.09 74.0864 9.97 74.0864 9.84C74.0864 9.6 73.9964 9.41 73.8164 9.27C73.7164 9.2 73.5564 9.125 73.3364 9.045C73.1264 8.965 72.8514 8.885 72.5114 8.805C71.9714 8.665 71.5214 8.505 71.1614 8.325C70.8014 8.135 70.5214 7.925 70.3214 7.695C70.1514 7.505 70.0214 7.29 69.9314 7.05C69.8514 6.81 69.8114 6.55 69.8114 6.27C69.8114 5.92 69.8864 5.605 70.0364 5.325C70.1964 5.035 70.4114 4.785 70.6814 4.575C70.9514 4.365 71.2664 4.205 71.6264 4.095C71.9864 3.985 72.3614 3.93 72.7514 3.93C73.1514 3.93 73.5364 3.98 73.9064 4.08C74.2864 4.18 74.6364 4.325 74.9564 4.515C75.2864 4.695 75.5664 4.915 75.7964 5.175L74.7764 6.3C74.5864 6.12 74.3764 5.96 74.1464 5.82C73.9264 5.68 73.7014 5.57 73.4714 5.49C73.2414 5.4 73.0264 5.355 72.8264 5.355C72.6364 5.355 72.4664 5.375 72.3164 5.415C72.1664 5.445 72.0414 5.495 71.9414 5.565C71.8414 5.635 71.7614 5.725 71.7014 5.835C71.6514 5.935 71.6264 6.055 71.6264 6.195C71.6364 6.315 71.6664 6.43 71.7164 6.54C71.7764 6.64 71.8564 6.725 71.9564 6.795C72.0664 6.865 72.2314 6.945 72.4514 7.035C72.6714 7.125 72.9564 7.21 73.3064 7.29C73.7964 7.42 74.2064 7.565 74.5364 7.725C74.8664 7.885 75.1264 8.07 75.3164 8.28C75.5064 8.46 75.6414 8.67 75.7214 8.91C75.8014 9.15 75.8414 9.415 75.8414 9.705C75.8414 10.175 75.7064 10.595 75.4364 10.965C75.1764 11.335 74.8164 11.625 74.3564 11.835C73.9064 12.045 73.3964 12.15 72.8264 12.15ZM80.4517 12.15C79.8017 12.15 79.2117 11.97 78.6817 11.61C78.1517 11.25 77.7267 10.76 77.4067 10.14C77.0867 9.52 76.9267 8.815 76.9267 8.025C76.9267 7.235 77.0867 6.53 77.4067 5.91C77.7267 5.29 78.1617 4.805 78.7117 4.455C79.2617 4.105 79.8817 3.93 80.5717 3.93C80.9717 3.93 81.3367 3.99 81.6667 4.11C81.9967 4.22 82.2867 4.38 82.5367 4.59C82.7867 4.8 82.9917 5.04 83.1517 5.31C83.3217 5.58 83.4367 5.87 83.4967 6.18L83.0917 6.075V4.095H84.9517V12H83.0767V10.11L83.5117 10.035C83.4417 10.305 83.3117 10.57 83.1217 10.83C82.9417 11.08 82.7117 11.305 82.4317 11.505C82.1617 11.695 81.8567 11.85 81.5167 11.97C81.1867 12.09 80.8317 12.15 80.4517 12.15ZM80.9617 10.515C81.3917 10.515 81.7717 10.41 82.1017 10.2C82.4317 9.99 82.6867 9.7 82.8667 9.33C83.0567 8.95 83.1517 8.515 83.1517 8.025C83.1517 7.545 83.0567 7.12 82.8667 6.75C82.6867 6.38 82.4317 6.09 82.1017 5.88C81.7717 5.67 81.3917 5.565 80.9617 5.565C80.5317 5.565 80.1517 5.67 79.8217 5.88C79.5017 6.09 79.2517 6.38 79.0717 6.75C78.8917 7.12 78.8017 7.545 78.8017 8.025C78.8017 8.515 78.8917 8.95 79.0717 9.33C79.2517 9.7 79.5017 9.99 79.8217 10.2C80.1517 10.41 80.5317 10.515 80.9617 10.515ZM90.6457 15.45C90.0557 15.45 89.4657 15.36 88.8757 15.18C88.2957 15 87.8257 14.765 87.4657 14.475L88.1257 13.11C88.3357 13.26 88.5707 13.39 88.8307 13.5C89.0907 13.61 89.3657 13.695 89.6557 13.755C89.9557 13.815 90.2507 13.845 90.5407 13.845C91.0707 13.845 91.5107 13.76 91.8607 13.59C92.2207 13.43 92.4907 13.18 92.6707 12.84C92.8507 12.51 92.9407 12.095 92.9407 11.595V10.14L93.2107 10.245C93.1507 10.555 92.9857 10.85 92.7157 11.13C92.4457 11.41 92.1057 11.64 91.6957 11.82C91.2857 11.99 90.8657 12.075 90.4357 12.075C89.6857 12.075 89.0207 11.9 88.4407 11.55C87.8707 11.2 87.4157 10.725 87.0757 10.125C86.7457 9.515 86.5807 8.815 86.5807 8.025C86.5807 7.235 86.7457 6.535 87.0757 5.925C87.4057 5.305 87.8557 4.82 88.4257 4.47C89.0057 4.11 89.6557 3.93 90.3757 3.93C90.6757 3.93 90.9657 3.965 91.2457 4.035C91.5257 4.105 91.7807 4.205 92.0107 4.335C92.2507 4.465 92.4657 4.61 92.6557 4.77C92.8457 4.93 93.0007 5.1 93.1207 5.28C93.2407 5.46 93.3157 5.635 93.3457 5.805L92.9557 5.925L92.9857 4.095H94.8007V11.46C94.8007 12.1 94.7057 12.665 94.5157 13.155C94.3257 13.645 94.0507 14.06 93.6907 14.4C93.3307 14.75 92.8957 15.01 92.3857 15.18C91.8757 15.36 91.2957 15.45 90.6457 15.45ZM90.7207 10.5C91.1707 10.5 91.5657 10.395 91.9057 10.185C92.2557 9.975 92.5257 9.685 92.7157 9.315C92.9057 8.945 93.0007 8.52 93.0007 8.04C93.0007 7.55 92.9007 7.12 92.7007 6.75C92.5107 6.37 92.2457 6.075 91.9057 5.865C91.5657 5.655 91.1707 5.55 90.7207 5.55C90.2707 5.55 89.8757 5.66 89.5357 5.88C89.1957 6.09 88.9257 6.385 88.7257 6.765C88.5357 7.135 88.4407 7.56 88.4407 8.04C88.4407 8.51 88.5357 8.935 88.7257 9.315C88.9257 9.685 89.1957 9.975 89.5357 10.185C89.8757 10.395 90.2707 10.5 90.7207 10.5ZM100.639 12.15C99.8095 12.15 99.0745 11.975 98.4345 11.625C97.8045 11.275 97.3095 10.8 96.9495 10.2C96.5995 9.59 96.4245 8.895 96.4245 8.115C96.4245 7.495 96.5245 6.93 96.7245 6.42C96.9245 5.91 97.1995 5.47 97.5495 5.1C97.9095 4.72 98.3345 4.43 98.8245 4.23C99.3245 4.02 99.8695 3.915 100.459 3.915C100.979 3.915 101.464 4.015 101.914 4.215C102.364 4.415 102.754 4.69 103.084 5.04C103.414 5.38 103.664 5.79 103.834 6.27C104.014 6.74 104.099 7.255 104.089 7.815L104.074 8.46H97.6695L97.3245 7.2H102.529L102.289 7.455V7.125C102.259 6.815 102.159 6.545 101.989 6.315C101.819 6.075 101.599 5.89 101.329 5.76C101.069 5.62 100.779 5.55 100.459 5.55C99.9695 5.55 99.5545 5.645 99.2145 5.835C98.8845 6.025 98.6345 6.3 98.4645 6.66C98.2945 7.01 98.2095 7.45 98.2095 7.98C98.2095 8.49 98.3145 8.935 98.5245 9.315C98.7445 9.695 99.0495 9.99 99.4395 10.2C99.8395 10.4 100.304 10.5 100.834 10.5C101.204 10.5 101.544 10.44 101.854 10.32C102.164 10.2 102.499 9.985 102.859 9.675L103.774 10.95C103.504 11.2 103.194 11.415 102.844 11.595C102.504 11.765 102.144 11.9 101.764 12C101.384 12.1 101.009 12.15 100.639 12.15ZM110.509 12.15C109.749 12.15 109.054 12.02 108.424 11.76C107.794 11.5 107.249 11.13 106.789 10.65C106.329 10.16 105.969 9.585 105.709 8.925C105.459 8.255 105.334 7.525 105.334 6.735C105.334 5.975 105.469 5.27 105.739 4.62C106.009 3.97 106.384 3.4 106.864 2.91C107.344 2.42 107.904 2.04 108.544 1.77C109.184 1.5 109.879 1.365 110.629 1.365C111.139 1.365 111.634 1.44 112.114 1.59C112.594 1.74 113.034 1.95 113.434 2.22C113.834 2.48 114.169 2.785 114.439 3.135L113.194 4.5C112.934 4.23 112.664 4.005 112.384 3.825C112.114 3.635 111.829 3.495 111.529 3.405C111.239 3.305 110.939 3.255 110.629 3.255C110.169 3.255 109.734 3.34 109.324 3.51C108.924 3.68 108.574 3.92 108.274 4.23C107.984 4.54 107.754 4.91 107.584 5.34C107.414 5.76 107.329 6.23 107.329 6.75C107.329 7.28 107.409 7.76 107.569 8.19C107.739 8.62 107.974 8.99 108.274 9.3C108.584 9.61 108.949 9.85 109.369 10.02C109.799 10.18 110.269 10.26 110.779 10.26C111.109 10.26 111.429 10.215 111.739 10.125C112.049 10.035 112.334 9.91 112.594 9.75C112.864 9.58 113.109 9.385 113.329 9.165L114.289 10.71C114.049 10.98 113.729 11.225 113.329 11.445C112.929 11.665 112.479 11.84 111.979 11.97C111.489 12.09 110.999 12.15 110.509 12.15ZM115.992 12V0.9H117.852V12H115.992ZM123.489 12.15C122.699 12.15 121.994 11.975 121.374 11.625C120.754 11.265 120.264 10.775 119.904 10.155C119.544 9.535 119.364 8.83 119.364 8.04C119.364 7.25 119.544 6.545 119.904 5.925C120.264 5.305 120.754 4.82 121.374 4.47C121.994 4.11 122.699 3.93 123.489 3.93C124.269 3.93 124.969 4.11 125.589 4.47C126.209 4.82 126.694 5.305 127.044 5.925C127.404 6.545 127.584 7.25 127.584 8.04C127.584 8.83 127.404 9.535 127.044 10.155C126.694 10.775 126.209 11.265 125.589 11.625C124.969 11.975 124.269 12.15 123.489 12.15ZM123.489 10.515C123.919 10.515 124.299 10.405 124.629 10.185C124.969 9.965 125.234 9.67 125.424 9.3C125.624 8.93 125.719 8.51 125.709 8.04C125.719 7.56 125.624 7.135 125.424 6.765C125.234 6.395 124.969 6.105 124.629 5.895C124.299 5.675 123.919 5.565 123.489 5.565C123.059 5.565 122.669 5.675 122.319 5.895C121.979 6.105 121.714 6.4 121.524 6.78C121.334 7.15 121.239 7.57 121.239 8.04C121.239 8.51 121.334 8.93 121.524 9.3C121.714 9.67 121.979 9.965 122.319 10.185C122.669 10.405 123.059 10.515 123.489 10.515ZM131.979 12.15C131.409 12.15 130.914 12.025 130.494 11.775C130.074 11.515 129.754 11.15 129.534 10.68C129.314 10.2 129.204 9.63 129.204 8.97V4.095H131.049V8.58C131.049 9 131.114 9.36 131.244 9.66C131.374 9.95 131.564 10.175 131.814 10.335C132.064 10.495 132.364 10.575 132.714 10.575C132.974 10.575 133.209 10.535 133.419 10.455C133.639 10.365 133.829 10.245 133.989 10.095C134.149 9.935 134.274 9.75 134.364 9.54C134.454 9.32 134.499 9.085 134.499 8.835V4.095H136.344V12H134.544L134.514 10.35L134.844 10.17C134.724 10.55 134.519 10.89 134.229 11.19C133.949 11.48 133.614 11.715 133.224 11.895C132.834 12.065 132.419 12.15 131.979 12.15ZM141.687 12.15C140.987 12.15 140.357 11.975 139.797 11.625C139.247 11.265 138.807 10.78 138.477 10.17C138.157 9.55 137.997 8.84 137.997 8.04C137.997 7.25 138.157 6.545 138.477 5.925C138.797 5.305 139.232 4.82 139.782 4.47C140.342 4.11 140.972 3.93 141.672 3.93C142.052 3.93 142.417 3.99 142.767 4.11C143.127 4.23 143.447 4.395 143.727 4.605C144.007 4.805 144.227 5.03 144.387 5.28C144.557 5.53 144.652 5.79 144.672 6.06L144.177 6.12V0.9H146.022V12H144.237L144.192 10.14L144.552 10.17C144.542 10.42 144.452 10.66 144.282 10.89C144.122 11.12 143.912 11.33 143.652 11.52C143.392 11.71 143.087 11.865 142.737 11.985C142.397 12.095 142.047 12.15 141.687 12.15ZM142.047 10.59C142.477 10.59 142.857 10.48 143.187 10.26C143.517 10.04 143.772 9.74 143.952 9.36C144.142 8.98 144.237 8.54 144.237 8.04C144.237 7.55 144.142 7.115 143.952 6.735C143.772 6.345 143.517 6.045 143.187 5.835C142.857 5.615 142.477 5.505 142.047 5.505C141.617 5.505 141.237 5.615 140.907 5.835C140.577 6.045 140.317 6.345 140.127 6.735C139.947 7.115 139.857 7.55 139.857 8.04C139.857 8.54 139.947 8.98 140.127 9.36C140.317 9.74 140.577 10.04 140.907 10.26C141.237 10.48 141.617 10.59 142.047 10.59ZM148.821 12.165C148.461 12.165 148.181 12.06 147.981 11.85C147.791 11.64 147.696 11.345 147.696 10.965C147.696 10.615 147.796 10.33 147.996 10.11C148.206 9.88 148.481 9.765 148.821 9.765C149.181 9.765 149.456 9.87 149.646 10.08C149.846 10.28 149.946 10.575 149.946 10.965C149.946 11.315 149.841 11.605 149.631 11.835C149.431 12.055 149.161 12.165 148.821 12.165ZM154.675 12.15C154.025 12.15 153.435 11.97 152.905 11.61C152.375 11.25 151.95 10.76 151.63 10.14C151.31 9.52 151.15 8.815 151.15 8.025C151.15 7.235 151.31 6.53 151.63 5.91C151.95 5.29 152.385 4.805 152.935 4.455C153.485 4.105 154.105 3.93 154.795 3.93C155.195 3.93 155.56 3.99 155.89 4.11C156.22 4.22 156.51 4.38 156.76 4.59C157.01 4.8 157.215 5.04 157.375 5.31C157.545 5.58 157.66 5.87 157.72 6.18L157.315 6.075V4.095H159.175V12H157.3V10.11L157.735 10.035C157.665 10.305 157.535 10.57 157.345 10.83C157.165 11.08 156.935 11.305 156.655 11.505C156.385 11.695 156.08 11.85 155.74 11.97C155.41 12.09 155.055 12.15 154.675 12.15ZM155.185 10.515C155.615 10.515 155.995 10.41 156.325 10.2C156.655 9.99 156.91 9.7 157.09 9.33C157.28 8.95 157.375 8.515 157.375 8.025C157.375 7.545 157.28 7.12 157.09 6.75C156.91 6.38 156.655 6.09 156.325 5.88C155.995 5.67 155.615 5.565 155.185 5.565C154.755 5.565 154.375 5.67 154.045 5.88C153.725 6.09 153.475 6.38 153.295 6.75C153.115 7.12 153.025 7.545 153.025 8.025C153.025 8.515 153.115 8.95 153.295 9.33C153.475 9.7 153.725 9.99 154.045 10.2C154.375 10.41 154.755 10.515 155.185 10.515ZM161.524 12V4.095H163.369V12H161.524ZM162.424 2.415C162.054 2.415 161.764 2.325 161.554 2.145C161.354 1.955 161.254 1.69 161.254 1.35C161.254 1.03 161.359 0.769999 161.569 0.57C161.779 0.369999 162.064 0.269999 162.424 0.269999C162.804 0.269999 163.094 0.364999 163.294 0.555C163.504 0.734999 163.609 0.999999 163.609 1.35C163.609 1.66 163.504 1.915 163.294 2.115C163.084 2.315 162.794 2.415 162.424 2.415Z" fill="black"/>
</svg>
