<svg width="19" height="19" viewBox="0 0 19 19" fill="none" xmlns="http://www.w3.org/2000/svg">
<g id="tdesign:notification-filled">
<path id="Vector" d="M6.84396 16.2292C7.01499 16.8007 7.3658 17.3018 7.84429 17.6581C8.32279 18.0143 8.90344 18.2068 9.5 18.2068C10.0966 18.2068 10.6772 18.0143 11.1557 17.6581C11.6342 17.3018 11.985 16.8007 12.156 16.2292H6.84396ZM2.375 15.4375H16.625V13.0625L15.0417 10.6875V6.72917C15.0417 6.00142 14.8983 5.28081 14.6198 4.60846C14.3413 3.93612 13.9331 3.32521 13.4186 2.81062C12.904 2.29603 12.2931 1.88783 11.6207 1.60933C10.9484 1.33084 10.2277 1.1875 9.5 1.1875C8.77226 1.1875 8.05164 1.33084 7.3793 1.60933C6.70695 1.88783 6.09604 2.29603 5.58145 2.81062C5.06686 3.32521 4.65866 3.93612 4.38017 4.60846C4.10167 5.28081 3.95833 6.00142 3.95833 6.72917V10.6875L2.375 13.0625V15.4375Z" fill="#050505"/>
</g>
</svg>
