<svg width="30" height="30" viewBox="0 0 30 30" fill="none" xmlns="http://www.w3.org/2000/svg">
<g id="notiifcation">
<rect id="Rectangle 1479" width="30" height="30" rx="7" fill="url(#paint0_linear_330_64)"/>
<path id="Vector" d="M12.469 21.2251C12.64 21.774 12.9908 22.2554 13.4693 22.5976C13.9478 22.9398 14.5284 23.1246 15.125 23.1246C15.7216 23.1246 16.3022 22.9398 16.7807 22.5976C17.2592 22.2554 17.61 21.774 17.781 21.2251H12.469ZM8 20.4646H22.25V18.1833L20.6667 15.902V12.0999C20.6667 11.4009 20.5233 10.7087 20.2448 10.0628C19.9663 9.41703 19.5581 8.83022 19.0436 8.33593C18.529 7.84165 17.9181 7.44955 17.2457 7.18205C16.5734 6.91454 15.8527 6.77686 15.125 6.77686C14.3973 6.77686 13.6766 6.91454 13.0043 7.18205C12.3319 7.44955 11.721 7.84165 11.2064 8.33593C10.6919 8.83022 10.2837 9.41703 10.0052 10.0628C9.72667 10.7087 9.58333 11.4009 9.58333 12.0999V15.902L8 18.1833V20.4646Z" fill="white"/>
</g>
<defs>
<linearGradient id="paint0_linear_330_64" x1="15" y1="0" x2="15" y2="30" gradientUnits="userSpaceOnUse">
<stop stop-color="#18A2F0"/>
<stop offset="1" stop-color="#0029FF"/>
</linearGradient>
</defs>
</svg>
