<svg width="21" height="20" viewBox="0 0 21 20" fill="none" xmlns="http://www.w3.org/2000/svg">
<path d="M13.5625 11.6667H12.8713L12.6263 11.4417C13.5134 10.4617 14.001 9.21058 14 7.91667C14 6.84535 13.6664 5.7981 13.0415 4.90733C12.4165 4.01656 11.5283 3.3223 10.489 2.91232C9.44976 2.50235 8.30619 2.39508 7.20293 2.60408C6.09966 2.81309 5.08624 3.32897 4.29083 4.08651C3.49542 4.84404 2.95374 5.8092 2.73429 6.85993C2.51483 7.91066 2.62746 8.99977 3.05794 9.98954C3.48841 10.9793 4.21739 11.8253 5.1527 12.4205C6.088 13.0157 7.18762 13.3333 8.3125 13.3333C9.72125 13.3333 11.0163 12.8417 12.0138 12.025L12.25 12.2583V12.9167L16.625 17.075L17.9288 15.8333L13.5625 11.6667ZM8.3125 11.6667C6.13375 11.6667 4.375 9.99167 4.375 7.91667C4.375 5.84167 6.13375 4.16667 8.3125 4.16667C10.4913 4.16667 12.25 5.84167 12.25 7.91667C12.25 9.99167 10.4913 11.6667 8.3125 11.6667Z" fill="white"/>
</svg>
