<svg width="19" height="19" viewBox="0 0 19 19" fill="none" xmlns="http://www.w3.org/2000/svg">
<path id="Vector" d="M13.0208 11.4583H12.1979L11.9063 11.1771C12.9624 9.95211 13.5428 8.38823 13.5417 6.77084C13.5417 5.43169 13.1446 4.12262 12.4006 3.00916C11.6566 1.89571 10.5991 1.02787 9.36192 0.515402C8.12471 0.0029337 6.76332 -0.131151 5.44991 0.130103C4.1365 0.391357 2.93005 1.03622 1.98313 1.98313C1.03622 2.93005 0.391357 4.1365 0.130103 5.44991C-0.131151 6.76332 0.0029337 8.12471 0.515402 9.36192C1.02787 10.5991 1.89571 11.6566 3.00916 12.4006C4.12262 13.1446 5.43169 13.5417 6.77084 13.5417C8.44792 13.5417 9.98959 12.9271 11.1771 11.9063L11.4583 12.1979V13.0208L16.6667 18.2188L18.2188 16.6667L13.0208 11.4583ZM6.77084 11.4583C4.17709 11.4583 2.08334 9.36459 2.08334 6.77084C2.08334 4.17709 4.17709 2.08334 6.77084 2.08334C9.36459 2.08334 11.4583 4.17709 11.4583 6.77084C11.4583 9.36459 9.36459 11.4583 6.77084 11.4583Z" fill="#999999"/>
</svg>
