<svg width="17" height="17" viewBox="0 0 17 17" fill="none" xmlns="http://www.w3.org/2000/svg">
<path fill-rule="evenodd" clip-rule="evenodd" d="M8.49996 1C8.87602 1 9.24673 1.02786 9.60779 1.08143L10.1521 2.73033C10.6288 2.8664 11.082 3.06032 11.502 3.30461L13.0663 2.55033C13.6202 2.97568 14.113 3.4771 14.5287 4.03852L13.7466 5.58886C13.9834 6.01313 14.1698 6.46956 14.2973 6.94955L15.9365 7.52061C16.0269 8.21382 16.0207 8.91619 15.9183 9.60772L14.2694 10.152C14.1343 10.6239 13.9414 11.0773 13.6952 11.502L14.4494 13.0662C14.0235 13.6203 13.5227 14.1125 12.9613 14.5287L11.411 13.7466C10.9821 13.9861 10.525 14.1711 10.0503 14.2973L9.47922 15.9365C8.78602 16.0269 8.08365 16.0207 7.39214 15.9183L6.84786 14.2694C6.37596 14.1343 5.92254 13.9414 5.4979 13.6952L3.93366 14.4494C3.37959 14.0235 2.8874 13.5226 2.4712 12.9612L3.25332 11.4109C3.01441 10.9818 2.82944 10.5247 2.70262 10.0502L1.06338 9.47808C0.973159 8.78522 0.979288 8.08322 1.08159 7.39204L2.73048 6.84776C2.86654 6.37099 3.06047 5.91778 3.30475 5.49779L2.55048 3.93352C2.9764 3.37945 3.47725 2.88725 4.03865 2.47105L5.58897 3.25318C6.01784 3.01369 6.47493 2.82869 6.94965 2.70247L7.52177 1.06321C7.84613 1.02102 8.17288 0.9999 8.49996 1Z" stroke="black" stroke-linecap="round" stroke-linejoin="round"/>
<path d="M8.4974 11.7144C10.2726 11.7144 11.7116 10.2753 11.7116 8.50012C11.7116 6.72495 10.2726 5.28589 8.4974 5.28589C6.72225 5.28589 5.2832 6.72495 5.2832 8.50012C5.2832 10.2753 6.72225 11.7144 8.4974 11.7144Z" stroke="black" stroke-linecap="round" stroke-linejoin="round"/>
</svg>
