<svg width="19" height="19" viewBox="0 0 19 19" fill="none" xmlns="http://www.w3.org/2000/svg">
<path d="M16.0312 9.95115V9.04272L17.1712 8.04522C17.3814 7.86 17.5193 7.60645 17.5606 7.32939C17.6019 7.05233 17.5439 6.7696 17.3969 6.53116L15.9956 4.15616C15.8915 3.97581 15.7418 3.82602 15.5615 3.7218C15.3812 3.61759 15.1767 3.56262 14.9684 3.56241C14.8394 3.56142 14.711 3.58147 14.5884 3.62178L13.1456 4.10866C12.8965 3.94312 12.6367 3.79436 12.3678 3.66334L12.065 2.16709C12.0107 1.89373 11.862 1.64818 11.6449 1.47342C11.4278 1.29865 11.1561 1.20582 10.8775 1.21116H8.09875C7.8201 1.20582 7.54845 1.29865 7.33135 1.47342C7.11425 1.64818 6.96554 1.89373 6.91125 2.16709L6.60843 3.66334C6.33765 3.79432 6.07582 3.94309 5.82468 4.10866L4.41156 3.59803C4.28764 3.56574 4.15932 3.55371 4.03156 3.56241C3.82332 3.56262 3.61879 3.61759 3.4385 3.7218C3.25821 3.82602 3.10849 3.97581 3.00437 4.15616L1.60312 6.53116C1.46453 6.76924 1.41303 7.04811 1.45745 7.31999C1.50186 7.59187 1.63941 7.83986 1.84656 8.02147L2.96875 9.04865V9.95709L1.84656 10.9546C1.63356 11.1375 1.49224 11.3899 1.44768 11.6671C1.40311 11.9442 1.45819 12.2282 1.60312 12.4687L3.00437 14.8437C3.10849 15.024 3.25821 15.1738 3.4385 15.278C3.61879 15.3822 3.82332 15.4372 4.03156 15.4374C4.16061 15.4384 4.28896 15.4183 4.41156 15.378L5.85437 14.8912C6.10347 15.0567 6.36332 15.2055 6.63218 15.3365L6.935 16.8327C6.98929 17.1061 7.138 17.3516 7.3551 17.5264C7.5722 17.7012 7.84385 17.794 8.1225 17.7887H10.925C11.2036 17.794 11.4753 17.7012 11.6924 17.5264C11.9095 17.3516 12.0582 17.1061 12.1125 16.8327L12.4153 15.3365C12.6861 15.2055 12.9479 15.0567 13.1991 14.8912L14.6359 15.378C14.7585 15.4183 14.8869 15.4384 15.0159 15.4374C15.2242 15.4372 15.4287 15.3822 15.609 15.278C15.7893 15.1738 15.939 15.024 16.0431 14.8437L17.3969 12.4687C17.5355 12.2306 17.587 11.9517 17.5425 11.6798C17.4981 11.4079 17.3606 11.16 17.1534 10.9783L16.0312 9.95115ZM14.9684 14.2499L12.9319 13.5612C12.4551 13.965 11.9103 14.2806 11.3228 14.4933L10.9012 16.6249H8.09875L7.67718 14.5171C7.09437 14.2983 6.55245 13.9832 6.07406 13.5849L4.03156 14.2499L2.63031 11.8749L4.24531 10.4499C4.13552 9.83529 4.13552 9.20608 4.24531 8.59147L2.63031 7.12491L4.03156 4.74991L6.06812 5.43866C6.54487 5.03484 7.08973 4.71918 7.67718 4.50647L8.09875 2.37491H10.9012L11.3228 4.48272C11.9056 4.70147 12.4475 5.01658 12.9259 5.41491L14.9684 4.74991L16.3697 7.12491L14.7547 8.5499C14.8645 9.16452 14.8645 9.79373 14.7547 10.4083L16.3697 11.8749L14.9684 14.2499Z" fill="black"/>
<path d="M9.5 13.0625C8.79541 13.0625 8.10663 12.8536 7.52078 12.4621C6.93493 12.0707 6.47832 11.5143 6.20868 10.8633C5.93904 10.2123 5.86849 9.49605 6.00595 8.80499C6.14341 8.11393 6.48271 7.47916 6.98093 6.98093C7.47916 6.48271 8.11393 6.14341 8.80499 6.00595C9.49605 5.86849 10.2123 5.93904 10.8633 6.20868C11.5143 6.47832 12.0707 6.93493 12.4621 7.52078C12.8536 8.10663 13.0625 8.79541 13.0625 9.5C13.0673 9.96916 12.9784 10.4346 12.801 10.8689C12.6237 11.3033 12.3614 11.6979 12.0297 12.0297C11.6979 12.3614 11.3033 12.6237 10.8689 12.801C10.4346 12.9784 9.96916 13.0673 9.5 13.0625ZM9.5 7.125C9.18611 7.11769 8.874 7.17412 8.58255 7.29089C8.29109 7.40766 8.02635 7.58233 7.80434 7.80434C7.58233 8.02635 7.40766 8.29109 7.29089 8.58255C7.17412 8.874 7.11769 9.18611 7.125 9.5C7.11769 9.81389 7.17412 10.126 7.29089 10.4175C7.40766 10.7089 7.58233 10.9736 7.80434 11.1957C8.02635 11.4177 8.29109 11.5923 8.58255 11.7091C8.874 11.8259 9.18611 11.8823 9.5 11.875C9.81389 11.8823 10.126 11.8259 10.4175 11.7091C10.7089 11.5923 10.9736 11.4177 11.1957 11.1957C11.4177 10.9736 11.5923 10.7089 11.7091 10.4175C11.8259 10.126 11.8823 9.81389 11.875 9.5C11.8823 9.18611 11.8259 8.874 11.7091 8.58255C11.5923 8.29109 11.4177 8.02635 11.1957 7.80434C10.9736 7.58233 10.7089 7.40766 10.4175 7.29089C10.126 7.17412 9.81389 7.11769 9.5 7.125Z" fill="black"/>
</svg>
