<svg width="15" height="15" viewBox="0 0 15 15" fill="none" xmlns="http://www.w3.org/2000/svg">
<path fill-rule="evenodd" clip-rule="evenodd" d="M7.5 13.9286V9.64306H8.57143V13.9286H13.9286V4.28611H15V13.9286C15 14.2128 14.8871 14.4853 14.6862 14.6862C14.4853 14.8871 14.2127 15 13.9286 15H1.07143C0.787268 15 0.514746 14.8871 0.313814 14.6862C0.112882 14.4853 0 14.2128 0 13.9286V11.7858H1.07143V13.9286H7.5ZM12.6996 3.0583L9.48643 6.27247C9.6583 6.63023 9.6917 7.03894 9.58019 7.41986C9.46868 7.80078 9.22015 8.12696 8.88248 8.33557C8.5448 8.54418 8.14188 8.62046 7.75131 8.54972C7.36075 8.47897 7.01018 8.26621 6.76714 7.95241L3.85929 8.92094L3.21429 9.13629C3.20753 9.51537 3.06695 9.87985 2.81742 10.1653C2.56789 10.4508 2.22546 10.6388 1.85068 10.6962C1.4759 10.7536 1.09289 10.6766 0.769362 10.4789C0.445836 10.2812 0.202628 9.97552 0.0827288 9.61584C-0.03717 9.25615 -0.0260373 8.86567 0.114159 8.5134C0.254355 8.16113 0.514586 7.86977 0.84885 7.69082C1.18311 7.51187 1.56988 7.45686 1.94079 7.53551C2.3117 7.61416 2.64285 7.82141 2.87571 8.12061L6.42857 6.93566C6.43335 6.66666 6.50559 6.40317 6.63866 6.16935C6.77173 5.93552 6.96138 5.73884 7.19021 5.59735C7.41905 5.45585 7.67974 5.37407 7.94839 5.35949C8.21705 5.34492 8.48506 5.39802 8.72786 5.51392L11.9421 2.29976C11.7787 1.95767 11.7415 1.56883 11.8371 1.20196C11.9327 0.835091 12.1549 0.513821 12.4644 0.294932C12.774 0.0760441 13.1509 -0.0263681 13.5287 0.00579711C13.9065 0.0379623 14.2607 0.202634 14.5288 0.470706C14.7968 0.738778 14.9615 1.09299 14.9937 1.47073C15.0259 1.84848 14.9234 2.22543 14.7045 2.53497C14.4856 2.84451 14.1644 3.0667 13.7975 3.16227C13.4306 3.25784 13.0417 3.22063 12.6996 3.05723" fill="black"/>
</svg>
