<svg xmlns="http://www.w3.org/2000/svg" viewBox="0 0 32 32"><title>10-Mail</title><g id="_10-Mail" data-name="10-Mail"><path d="M11,24H4a4,4,0,0,1-4-4V4A4,4,0,0,1,4,0H28a4,4,0,0,1,4,4v9a1,1,0,0,1-2,0V4a2,2,0,0,0-2-2H4A2,2,0,0,0,2,4V20a2,2,0,0,0,2,2h7a1,1,0,0,1,0,2Z"/><path d="M16,14a1,1,0,0,1-.618-.214l-14-11A1,1,0,0,1,2.618,1.214L16,11.728,29.382,1.214a1,1,0,1,1,1.236,1.572l-14,11A1,1,0,0,1,16,14Z"/><path d="M2,23a1,1,0,0,1-.707-1.707l11-11a1,1,0,0,1,1.414,1.414l-11,11A1,1,0,0,1,2,23Z"/><path d="M23,32a9,9,0,1,1,9-9A9.01,9.01,0,0,1,23,32Zm0-16a7,7,0,1,0,7,7A7.008,7.008,0,0,0,23,16Z"/><path d="M18,29a1,1,0,0,1-.707-1.707l10-10a1,1,0,0,1,1.414,1.414l-10,10A1,1,0,0,1,18,29Z"/></g></svg>